 <!DOCTYPE svg PUBLIC "-//W3C//DTD SVG 1.1//EN" "http://www.w3.org/Graphics/SVG/1.1/DTD/svg11.dtd">
<svg id="b85f605b-726d-4660-a3b8-878ed7cb180e" data-name="Layer 1" xmlns="http://www.w3.org/2000/svg" width="865.76" height="682.89" viewBox="0 0 865.76 682.89">
<defs>
<style xmlns="http://www.w3.org/1999/xhtml">*, ::after, ::before { box-sizing: border-box; }
img, svg { vertical-align: middle; }
</style>
<style xmlns="http://www.w3.org/1999/xhtml">*, body, html { -webkit-font-smoothing: antialiased; }
img, svg { max-width: 100%; }
</style>
</defs>
<path d="M153,587.59l18.51-.11,1.85-9.17,6,8.86,32.92-1.32c4.09-.17,7.3-2.87,7.17-6a5.52,5.52,0,0,0-3.39-4.59l-29.21-12.67-.36-9.18L155.2,555Z" fill="#0071f2" data-primary="true"/>
<path d="M251.88,585l18.5-.1,1.86-9.17,6,8.85,32.93-1.32c4.08-.16,7.29-2.86,7.17-6a5.52,5.52,0,0,0-3.39-4.59L285.77,560l-.37-9.18-31.34,1.64Z" fill="#0071f2" data-primary="true"/>
<path d="M714.18,297.31H691.9v30.61H568.47V590.86H714.18a13.73,13.73,0,0,0,13.72-13.73V311A13.73,13.73,0,0,0,714.18,297.31Z" fill="#2f2e41" data-secondary="true"/>
<rect x="578.76" y="350.83" width="126" height="96.86" transform="translate(1283.52 798.52) rotate(-180)" fill="#fff"/>
<circle cx="644.33" cy="399.26" r="33" fill="#e4e4e4"/>
<path d="M636.19,411a1.05,1.05,0,0,1-.7-.28L624.35,400a1,1,0,0,1,0-1.41,1,1,0,0,1,1.42,0l10.45,10,20.73-19.91a1,1,0,0,1,1.39,1.45L636.88,410.7A1,1,0,0,1,636.19,411Z" fill="#fff"/>
<rect x="625.05" y="468.26" width="32.57" height="14.57" rx="1.71" fill="#fff"/>
<rect x="669.62" y="468.26" width="32.57" height="14.57" rx="1.71" fill="#fff"/>
<rect x="583.05" y="468.26" width="32.57" height="14.57" rx="1.71" fill="#fff"/>
<rect x="624.19" y="495.69" width="32.57" height="14.57" rx="1.71" fill="#fff"/>
<rect x="668.76" y="495.69" width="32.57" height="14.57" rx="1.71" fill="#fff"/>
<rect x="582.19" y="495.69" width="32.57" height="14.57" rx="1.71" fill="#fff"/>
<rect x="624.19" y="522.12" width="32.57" height="14.57" rx="1.71" fill="#fff"/>
<rect x="668.76" y="522.12" width="32.57" height="14.57" rx="1.71" fill="#fff"/>
<rect x="582.19" y="522.12" width="32.57" height="14.57" rx="1.71" fill="#fff"/>
<rect x="623.76" y="548.55" width="32.57" height="14.57" rx="1.71" fill="#fff"/>
<rect x="668.33" y="548.55" width="32.57" height="14.57" rx="1.71" fill="#fff"/>
<rect x="581.76" y="548.55" width="32.57" height="14.57" rx="1.71" fill="#fff"/>
<rect x="309.07" y="92.03" width="283.53" height="498.82" rx="25.97" fill="#2f2e41" data-secondary="true"/>
<rect x="315.95" y="99.09" width="270.59" height="485.88" rx="22.94" fill="#fff" stroke="#000" stroke-miterlimit="10"/>
<rect x="354.78" y="139.09" width="48.24" height="275.29" fill="#e4e4e4"/>
<rect x="438.31" y="139.09" width="109.41" height="275.29" fill="#e4e4e4"/>
<rect x="483.88" y="176.98" width="38.57" height="23.14" fill="#bcbec0"/>
<path d="M486.84,167.69h6.47a0,0,0,0,1,0,0v6.57a0,0,0,0,1,0,0h-8.82a0,0,0,0,1,0,0V170A2.35,2.35,0,0,1,486.84,167.69Z" fill="#bcbec0"/>
<rect x="495.88" y="167.69" width="14.57" height="6.57" fill="#bcbec0"/>
<path d="M513,167.69h8.82a0,0,0,0,1,0,0v6.57a0,0,0,0,1,0,0h-6.47a2.35,2.35,0,0,1-2.35-2.35v-4.22A0,0,0,0,1,513,167.69Z" transform="translate(1034.86 341.95) rotate(-180)" fill="#bcbec0"/>
<path d="M515.37,202.83h6.47a0,0,0,0,1,0,0v6.57a0,0,0,0,1,0,0H513a0,0,0,0,1,0,0v-4.22A2.35,2.35,0,0,1,515.37,202.83Z" transform="translate(1034.86 412.24) rotate(180)" fill="#bcbec0"/>
<rect x="495.88" y="202.83" width="14.57" height="6.57" transform="translate(1006.33 412.24) rotate(180)" fill="#bcbec0"/>
<path d="M484.49,202.83h8.82a0,0,0,0,1,0,0v6.57a0,0,0,0,1,0,0h-6.47a2.35,2.35,0,0,1-2.35-2.35v-4.22A0,0,0,0,1,484.49,202.83Z" fill="#bcbec0"/>
<rect x="410.19" y="113.69" width="67.43" height="9.14" rx="4.57" fill="#e4e4e4"/>
<circle cx="486.19" cy="118.26" r="4.57" fill="#e4e4e4"/>
<rect x="475.9" y="315.98" width="8.57" height="89.71" rx="4.29" fill="#bcbec0"/>
<rect x="506.76" y="315.98" width="8.57" height="89.71" rx="4.29" fill="#bcbec0"/>
<rect x="491.33" y="358.83" width="8.57" height="46.86" rx="4.29" fill="#bcbec0"/>
<rect x="378.89" y="454.55" width="143.56" height="70.71" rx="4.79" fill="#e4e4e4"/>
<path d="M209.29,220.41V209.55s19.86,11.43,20.43-6c0,0,0-20.86-2.86-30L189.09,185l6.49,28.57S204.72,216.41,209.29,220.41Z" fill="#f9b499"/>
<path d="M195.58,557.26H143s-5.14-15.71,5.72-33.71c0,0,36-54.57,23.43-97.14l81-8.28a143.62,143.62,0,0,1,18.28,49.15,285.19,285.19,0,0,0,8.24,35.83c5.08,16.66,12.79,38.06,22.71,54.15H249.29s-12.1-15.58-14-43.39a124,124,0,0,0-6.78-33.23c-2.82-7.86-6.43-15.33-10.61-18.23C217.86,462.41,203.58,539.26,195.58,557.26Z" fill="#2f2e41" data-secondary="true"/>
<path d="M356.35,286s12.56-4.71,8.35-11.78-9.49-9-13.67-7.46-16.21,12.52-16.21,12.52l-12.32,5,6,11.25s14.51-3.8,16.36-4.4Z" fill="#f9b499"/>
<path d="M351.46,257.51s13.16-2.65,13.32,5.58-3.27,12.68-7.65,13.56-20.38-2-20.38-2l-13.12,2.24-.83-12.75s14.32-4.46,16.21-4.92Z" fill="#f9b499"/>
<path d="M167.58,270.89c5,35.4-9,93.4-12.42,106.73-.64,2.51-1.24,5-1.71,7.58-10.28,54.72,22.13,66.06,22.13,66.06l.55-2.51a15.75,15.75,0,0,1,13.19-12.23c16.44-2.33,47.71-5.73,66.83-1.26,0,0-5.15-22.28-3.43-35.43,0,0,2.28-71.42-4-92.57,0,0,10.28,12.57,30.86,6.29l54.28-17.14s-8.57-16,0-20.58V260.41l-60.57,8S222,217,189.09,213Z" fill="#0071f2" data-primary="true"/>
<path d="M151.05,245.68s-9.33-15.27,7.63-19.51c0,0,17.82-3.58,19.51-31.91,0,0-11-45.28,25.45-41,0,0,33.93,1,27.15,17.9,0,0-4.27,14.4-22.51,12.87-7.83-.66-13.67,7.29-10.23,14.35,0,.11.1.21.16.32a6.29,6.29,0,0,1,.52,1.39c1.68,7.38,14,67.62-28.17,79.56,0,0-28.36,8.2-23.5-16.64a14.19,14.19,0,0,1,3.11-6.13C151.12,255.68,151.94,252.79,151.05,245.68Z" fill="#2f2e41" data-secondary="true"/>
</svg>