<svg id="SvgjsSvg1001" width="288" height="288" xmlns="http://www.w3.org/2000/svg" version="1.1" xmlns:xlink="http://www.w3.org/1999/xlink" xmlns:svgjs="http://svgjs.com/svgjs"><defs id="SvgjsDefs1002"></defs><g id="SvgjsG1008" transform="matrix(1,0,0,1,0,0)"><svg xmlns="http://www.w3.org/2000/svg" width="288" height="288" data-name="Layer 1" viewBox="0 0 865.76 682.89" style="max-width:100%;vertical-align:middle;-webkit-font-smoothing:antialiased;box-sizing:border-box"><path fill="#3f3d56" d="M341 645.38h28.64a0 0 0 010 0v11.06a11.82 11.82 0 01-11.82 11.82h-5A11.82 11.82 0 01341 656.44V645.38A0 0 0 01341 645.38zM543.95 645.38h28.64a0 0 0 010 0v11.06a11.82 11.82 0 01-11.82 11.82h-5a11.82 11.82 0 01-11.82-11.82V645.38A0 0 0 01543.95 645.38z" style="-webkit-font-smoothing:antialiased;box-sizing:border-box" class="color3f3d56 svgShape"></path><path fill="#2f2e41" d="M715.1,348.73a22.61,22.61,0,0,0-22.6-22.56H681.3V561.51h14.24a19.91,19.91,0,0,0,19.91-20Zm-32.58-4.18v-5.12h10.86a12.46,12.46,0,0,1,12.46,12.46V540.53a13.58,13.58,0,0,1-13.58,13.58h-9.74" data-secondary="true" style="-webkit-font-smoothing:antialiased;box-sizing:border-box" class="color2f2e41 svgShape"></path><rect width="260.01" height="365.1" x="326.63" y="283.98" fill="#2f2e41" data-secondary="true" rx="6.79" style="-webkit-font-smoothing:antialiased;box-sizing:border-box" class="color2f2e41 svgShape"></rect><rect width="231.93" height="104.78" x="340.97" y="298.06" fill="#2f2e41" data-secondary="true" style="-webkit-font-smoothing:antialiased;box-sizing:border-box" class="color2f2e41 svgShape"></rect><rect width="231.93" height="104.78" x="340.97" y="298.06" opacity=".37" style="-webkit-font-smoothing:antialiased;box-sizing:border-box" fill="#000000" class="color000 svgShape"></rect><rect width="231.93" height="109.68" x="340.67" y="412.64" fill="#2f2e41" data-secondary="true" style="-webkit-font-smoothing:antialiased;box-sizing:border-box" class="color2f2e41 svgShape"></rect><rect width="231.93" height="109.68" x="340.67" y="412.64" opacity=".37" style="-webkit-font-smoothing:antialiased;box-sizing:border-box" fill="#000000" class="color000 svgShape"></rect><rect width="231.93" height="105.84" x="340.67" y="532.12" fill="#2f2e41" data-secondary="true" style="-webkit-font-smoothing:antialiased;box-sizing:border-box" class="color2f2e41 svgShape"></rect><rect width="231.93" height="105.84" x="340.67" y="532.12" opacity=".37" style="-webkit-font-smoothing:antialiased;box-sizing:border-box" fill="#000000" class="color000 svgShape"></rect><rect width="68.04" height="17.57" x="399.75" y="385.27" fill="#2f2e41" data-secondary="true" style="-webkit-font-smoothing:antialiased;box-sizing:border-box" class="color2f2e41 svgShape"></rect><rect width="34.93" height="17.57" x="417.64" y="385.27" opacity=".2" style="-webkit-font-smoothing:antialiased;box-sizing:border-box" fill="#000000" class="color000 svgShape"></rect><rect width="2.98" height="17.57" x="419.77" y="385.27" fill="#ffffff" style="-webkit-font-smoothing:antialiased;box-sizing:border-box" class="colorfff svgShape"></rect><rect width="2.98" height="17.57" x="446.77" y="385.27" fill="#ffffff" style="-webkit-font-smoothing:antialiased;box-sizing:border-box" class="colorfff svgShape"></rect><rect width="68.04" height="17.57" x="342.76" y="504.64" fill="#2f2e41" data-secondary="true" style="-webkit-font-smoothing:antialiased;box-sizing:border-box" class="color2f2e41 svgShape"></rect><rect width="34.93" height="17.57" x="360.65" y="504.64" opacity=".2" style="-webkit-font-smoothing:antialiased;box-sizing:border-box" fill="#000000" class="color000 svgShape"></rect><rect width="2.98" height="17.57" x="362.78" y="504.64" fill="#ffffff" style="-webkit-font-smoothing:antialiased;box-sizing:border-box" class="colorfff svgShape"></rect><rect width="2.98" height="17.57" x="389.77" y="504.64" fill="#ffffff" style="-webkit-font-smoothing:antialiased;box-sizing:border-box" class="colorfff svgShape"></rect><rect width="68.04" height="17.57" x="422.01" y="504.64" fill="#2f2e41" data-secondary="true" style="-webkit-font-smoothing:antialiased;box-sizing:border-box" class="color2f2e41 svgShape"></rect><rect width="34.93" height="17.57" x="439.9" y="504.64" opacity=".2" style="-webkit-font-smoothing:antialiased;box-sizing:border-box" fill="#000000" class="color000 svgShape"></rect><rect width="2.98" height="17.57" x="442.03" y="504.64" fill="#ffffff" style="-webkit-font-smoothing:antialiased;box-sizing:border-box" class="colorfff svgShape"></rect><rect width="2.98" height="17.57" x="469.02" y="504.64" fill="#ffffff" style="-webkit-font-smoothing:antialiased;box-sizing:border-box" class="colorfff svgShape"></rect><rect width="68.04" height="17.57" x="498.52" y="469.52" fill="#2f2e41" data-secondary="true" style="-webkit-font-smoothing:antialiased;box-sizing:border-box" class="color2f2e41 svgShape"></rect><rect width="34.93" height="17.57" x="516.41" y="469.52" opacity=".2" style="-webkit-font-smoothing:antialiased;box-sizing:border-box" fill="#000000" class="color000 svgShape"></rect><rect width="2.98" height="17.57" x="518.54" y="469.52" fill="#ffffff" style="-webkit-font-smoothing:antialiased;box-sizing:border-box" class="colorfff svgShape"></rect><rect width="2.98" height="17.57" x="545.53" y="469.52" fill="#ffffff" style="-webkit-font-smoothing:antialiased;box-sizing:border-box" class="colorfff svgShape"></rect><rect width="68.04" height="17.57" x="494.05" y="487.07" fill="#2f2e41" data-secondary="true" style="-webkit-font-smoothing:antialiased;box-sizing:border-box" class="color2f2e41 svgShape"></rect><rect width="34.93" height="17.57" x="511.93" y="487.07" opacity=".2" style="-webkit-font-smoothing:antialiased;box-sizing:border-box" fill="#000000" class="color000 svgShape"></rect><rect width="2.98" height="17.57" x="514.06" y="487.07" fill="#ffffff" style="-webkit-font-smoothing:antialiased;box-sizing:border-box" class="colorfff svgShape"></rect><rect width="2.98" height="17.57" x="541.06" y="487.07" fill="#ffffff" style="-webkit-font-smoothing:antialiased;box-sizing:border-box" class="colorfff svgShape"></rect><rect width="68.04" height="17.57" x="502.24" y="504.64" fill="#2f2e41" data-secondary="true" style="-webkit-font-smoothing:antialiased;box-sizing:border-box" class="color2f2e41 svgShape"></rect><rect width="34.93" height="17.57" x="520.13" y="504.64" opacity=".2" style="-webkit-font-smoothing:antialiased;box-sizing:border-box" fill="#000000" class="color000 svgShape"></rect><rect width="2.98" height="17.57" x="522.26" y="504.64" fill="#ffffff" style="-webkit-font-smoothing:antialiased;box-sizing:border-box" class="colorfff svgShape"></rect><rect width="2.98" height="17.57" x="549.26" y="504.64" fill="#ffffff" style="-webkit-font-smoothing:antialiased;box-sizing:border-box" class="colorfff svgShape"></rect><rect width="68.04" height="17.57" x="434.04" y="469.52" fill="#2f2e41" data-secondary="true" transform="rotate(-33.23 467.981 478.257)" style="-webkit-font-smoothing:antialiased;box-sizing:border-box" class="color2f2e41 svgShape"></rect><rect width="34.93" height="17.57" x="451.71" y="468.79" opacity=".2" transform="rotate(-33.23 469.092 477.53)" style="-webkit-font-smoothing:antialiased;box-sizing:border-box" fill="#000000" class="color000 svgShape"></rect><rect width="2.98" height="17.57" x="456.11" y="476.38" fill="#ffffff" transform="rotate(-33.23 457.505 485.113)" style="-webkit-font-smoothing:antialiased;box-sizing:border-box" class="colorfff svgShape"></rect><rect width="2.98" height="17.57" x="478.69" y="461.58" fill="#ffffff" transform="rotate(-33.23 480.094 470.32)" style="-webkit-font-smoothing:antialiased;box-sizing:border-box" class="colorfff svgShape"></rect><rect width="68.04" height="17.57" x="362.53" y="487.07" fill="#2f2e41" data-secondary="true" style="-webkit-font-smoothing:antialiased;box-sizing:border-box" class="color2f2e41 svgShape"></rect><rect width="34.93" height="17.57" x="380.42" y="487.07" opacity=".2" style="-webkit-font-smoothing:antialiased;box-sizing:border-box" fill="#000000" class="color000 svgShape"></rect><rect width="2.98" height="17.57" x="382.55" y="487.07" fill="#ffffff" style="-webkit-font-smoothing:antialiased;box-sizing:border-box" class="colorfff svgShape"></rect><rect width="2.98" height="17.57" x="409.54" y="487.07" fill="#ffffff" style="-webkit-font-smoothing:antialiased;box-sizing:border-box" class="colorfff svgShape"></rect><rect width="68.04" height="17.57" x="351.51" y="469.5" fill="#2f2e41" data-secondary="true" style="-webkit-font-smoothing:antialiased;box-sizing:border-box" class="color2f2e41 svgShape"></rect><rect width="34.93" height="17.57" x="369.4" y="469.5" opacity=".2" style="-webkit-font-smoothing:antialiased;box-sizing:border-box" fill="#000000" class="color000 svgShape"></rect><rect width="2.98" height="17.57" x="371.53" y="469.5" fill="#ffffff" style="-webkit-font-smoothing:antialiased;box-sizing:border-box" class="colorfff svgShape"></rect><rect width="2.98" height="17.57" x="398.52" y="469.5" fill="#ffffff" style="-webkit-font-smoothing:antialiased;box-sizing:border-box" class="colorfff svgShape"></rect><rect width="68.04" height="17.57" x="344.32" y="451.93" fill="#2f2e41" data-secondary="true" style="-webkit-font-smoothing:antialiased;box-sizing:border-box" class="color2f2e41 svgShape"></rect><rect width="34.93" height="17.57" x="362.21" y="451.93" opacity=".2" style="-webkit-font-smoothing:antialiased;box-sizing:border-box" fill="#000000" class="color000 svgShape"></rect><rect width="2.98" height="17.57" x="364.34" y="451.93" fill="#ffffff" style="-webkit-font-smoothing:antialiased;box-sizing:border-box" class="colorfff svgShape"></rect><rect width="2.98" height="17.57" x="391.33" y="451.93" fill="#ffffff" style="-webkit-font-smoothing:antialiased;box-sizing:border-box" class="colorfff svgShape"></rect><rect width="68.04" height="17.57" x="358.73" y="434.36" fill="#2f2e41" data-secondary="true" style="-webkit-font-smoothing:antialiased;box-sizing:border-box" class="color2f2e41 svgShape"></rect><rect width="34.93" height="17.57" x="376.62" y="434.36" opacity=".2" style="-webkit-font-smoothing:antialiased;box-sizing:border-box" fill="#000000" class="color000 svgShape"></rect><rect width="2.98" height="17.57" x="378.75" y="434.36" fill="#ffffff" style="-webkit-font-smoothing:antialiased;box-sizing:border-box" class="colorfff svgShape"></rect><rect width="2.98" height="17.57" x="405.74" y="434.36" fill="#ffffff" style="-webkit-font-smoothing:antialiased;box-sizing:border-box" class="colorfff svgShape"></rect><rect width="68.04" height="17.57" x="481.05" y="385.27" fill="#2f2e41" data-secondary="true" style="-webkit-font-smoothing:antialiased;box-sizing:border-box" class="color2f2e41 svgShape"></rect><rect width="34.93" height="17.57" x="498.94" y="385.27" opacity=".2" style="-webkit-font-smoothing:antialiased;box-sizing:border-box" fill="#000000" class="color000 svgShape"></rect><rect width="2.98" height="17.57" x="501.07" y="385.27" fill="#ffffff" style="-webkit-font-smoothing:antialiased;box-sizing:border-box" class="colorfff svgShape"></rect><rect width="2.98" height="17.57" x="528.07" y="385.27" fill="#ffffff" style="-webkit-font-smoothing:antialiased;box-sizing:border-box" class="colorfff svgShape"></rect><rect width="68.04" height="17.57" x="489.25" y="367.7" fill="#2f2e41" data-secondary="true" style="-webkit-font-smoothing:antialiased;box-sizing:border-box" class="color2f2e41 svgShape"></rect><rect width="34.93" height="17.57" x="507.14" y="367.7" opacity=".2" style="-webkit-font-smoothing:antialiased;box-sizing:border-box" fill="#000000" class="color000 svgShape"></rect><rect width="2.98" height="17.57" x="509.27" y="367.7" fill="#ffffff" style="-webkit-font-smoothing:antialiased;box-sizing:border-box" class="colorfff svgShape"></rect><rect width="2.98" height="17.57" x="536.27" y="367.7" fill="#ffffff" style="-webkit-font-smoothing:antialiased;box-sizing:border-box" class="colorfff svgShape"></rect><rect width="68.04" height="17.57" x="417.8" y="367.7" fill="#2f2e41" data-secondary="true" style="-webkit-font-smoothing:antialiased;box-sizing:border-box" class="color2f2e41 svgShape"></rect><rect width="34.93" height="17.57" x="435.69" y="367.7" opacity=".2" style="-webkit-font-smoothing:antialiased;box-sizing:border-box" fill="#000000" class="color000 svgShape"></rect><rect width="2.98" height="17.57" x="437.82" y="367.7" fill="#ffffff" style="-webkit-font-smoothing:antialiased;box-sizing:border-box" class="colorfff svgShape"></rect><rect width="2.98" height="17.57" x="464.81" y="367.7" fill="#ffffff" style="-webkit-font-smoothing:antialiased;box-sizing:border-box" class="colorfff svgShape"></rect><rect width="68.04" height="17.57" x="451.82" y="350.13" fill="#2f2e41" data-secondary="true" style="-webkit-font-smoothing:antialiased;box-sizing:border-box" class="color2f2e41 svgShape"></rect><rect width="34.93" height="17.57" x="469.71" y="350.13" opacity=".2" style="-webkit-font-smoothing:antialiased;box-sizing:border-box" fill="#000000" class="color000 svgShape"></rect><rect width="2.98" height="17.57" x="471.84" y="350.13" fill="#ffffff" style="-webkit-font-smoothing:antialiased;box-sizing:border-box" class="colorfff svgShape"></rect><rect width="2.98" height="17.57" x="498.84" y="350.13" fill="#ffffff" style="-webkit-font-smoothing:antialiased;box-sizing:border-box" class="colorfff svgShape"></rect><rect width="68.04" height="17.57" x="475.25" y="332.56" fill="#2f2e41" data-secondary="true" style="-webkit-font-smoothing:antialiased;box-sizing:border-box" class="color2f2e41 svgShape"></rect><rect width="34.93" height="17.57" x="493.14" y="332.56" opacity=".2" style="-webkit-font-smoothing:antialiased;box-sizing:border-box" fill="#000000" class="color000 svgShape"></rect><rect width="2.98" height="17.57" x="495.27" y="332.56" fill="#ffffff" style="-webkit-font-smoothing:antialiased;box-sizing:border-box" class="colorfff svgShape"></rect><rect width="2.98" height="17.57" x="522.26" y="332.56" fill="#ffffff" style="-webkit-font-smoothing:antialiased;box-sizing:border-box" class="colorfff svgShape"></rect><rect width="68.04" height="17.57" x="343.57" y="374.17" fill="#2f2e41" data-secondary="true" transform="rotate(-17.32 377.541 382.922)" style="-webkit-font-smoothing:antialiased;box-sizing:border-box" class="color2f2e41 svgShape"></rect><rect width="34.93" height="17.57" x="361.4" y="373.77" opacity=".2" transform="matrix(.95 -.3 .3 .95 -96.7 130.12)" style="-webkit-font-smoothing:antialiased;box-sizing:border-box" fill="#000000" class="color000 svgShape"></rect><rect width="2.98" height="17.57" x="364.16" y="377.89" fill="#ffffff" transform="rotate(-17.32 365.588 386.643)" style="-webkit-font-smoothing:antialiased;box-sizing:border-box" class="colorfff svgShape"></rect><rect width="2.98" height="17.57" x="389.93" y="369.86" fill="#ffffff" transform="rotate(-17.32 391.365 378.611)" style="-webkit-font-smoothing:antialiased;box-sizing:border-box" class="colorfff svgShape"></rect><polygon fill="#2f2e41" points="370.49 576.63 388.7 546.39 422.94 546.39 440.99 576.63 370.49 576.63" data-secondary="true" style="-webkit-font-smoothing:antialiased;box-sizing:border-box" class="color2f2e41 svgShape"></polygon><path d="M384,561.51s-4.32,13.41,28.48,15.12h-45.2l18.21-30.24Z" opacity=".2" style="-webkit-font-smoothing:antialiased;box-sizing:border-box" fill="#000000" class="color000 svgShape"></path><polygon fill="#2f2e41" points="346.67 606.87 364.88 576.63 399.12 576.63 417.17 606.87 346.67 606.87" data-secondary="true" style="-webkit-font-smoothing:antialiased;box-sizing:border-box" class="color2f2e41 svgShape"></polygon><path d="M363.38,591.75s-4.32,13.42,28.49,15.12h-45.2l18.21-30.24Z" opacity=".2" style="-webkit-font-smoothing:antialiased;box-sizing:border-box" fill="#000000" class="color000 svgShape"></path><polygon fill="#2f2e41" points="413.42 606.87 431.63 576.63 465.88 576.63 483.92 606.87 413.42 606.87" data-secondary="true" style="-webkit-font-smoothing:antialiased;box-sizing:border-box" class="color2f2e41 svgShape"></polygon><path d="M430.14,591.75s-4.32,13.42,28.49,15.12H413.42l18.21-30.24Z" opacity=".2" style="-webkit-font-smoothing:antialiased;box-sizing:border-box" fill="#000000" class="color000 svgShape"></path><polygon fill="#2f2e41" points="346.67 637.97 364.88 607.72 399.12 607.72 417.17 637.97 346.67 637.97" data-secondary="true" style="-webkit-font-smoothing:antialiased;box-sizing:border-box" class="color2f2e41 svgShape"></polygon><path d="M363.38,622.84s-4.32,13.42,28.49,15.12h-45.2l18.21-30.24Z" opacity=".2" style="-webkit-font-smoothing:antialiased;box-sizing:border-box" fill="#000000" class="color000 svgShape"></path><polygon fill="#2f2e41" points="416.4 637.97 434.61 607.72 468.86 607.72 486.91 637.97 416.4 637.97" data-secondary="true" style="-webkit-font-smoothing:antialiased;box-sizing:border-box" class="color2f2e41 svgShape"></polygon><path d="M433.12,622.84S428.8,636.26,461.61,638H416.4l18.21-30.24Z" opacity=".2" style="-webkit-font-smoothing:antialiased;box-sizing:border-box" fill="#000000" class="color000 svgShape"></path><polygon fill="#2f2e41" points="491.59 637.86 509.8 607.62 544.04 607.62 562.09 637.86 491.59 637.86" data-secondary="true" style="-webkit-font-smoothing:antialiased;box-sizing:border-box" class="color2f2e41 svgShape"></polygon><path d="M508.31,622.74s-4.32,13.41,28.48,15.12h-45.2l18.21-30.24Z" opacity=".2" style="-webkit-font-smoothing:antialiased;box-sizing:border-box" fill="#000000" class="color000 svgShape"></path><polygon fill="#2f2e41" points="657.66 241.2 572.9 298.06 572.59 637.97 657.66 649.08 657.66 241.2" data-secondary="true" style="-webkit-font-smoothing:antialiased;box-sizing:border-box" class="color2f2e41 svgShape"></polygon><rect width="27.37" height="407.88" x="657.66" y="241.2" fill="#2f2e41" data-secondary="true" style="-webkit-font-smoothing:antialiased;box-sizing:border-box" class="color2f2e41 svgShape"></rect><polygon points="603.93 642.04 572.59 298.06 572.59 637.64 603.93 642.04" opacity=".3" style="-webkit-font-smoothing:antialiased;box-sizing:border-box" fill="#000000" class="color000 svgShape"></polygon><circle cx="671.93" cy="372.92" r="10.17" fill="#2f2e41" data-secondary="true" style="-webkit-font-smoothing:antialiased;box-sizing:border-box" class="color2f2e41 svgShape"></circle><circle cx="671.93" cy="372.92" r="7.38" opacity=".2" style="-webkit-font-smoothing:antialiased;box-sizing:border-box" fill="#000000" class="color000 svgShape"></circle><circle cx="671.93" cy="461.94" r="10.17" fill="#2f2e41" data-secondary="true" style="-webkit-font-smoothing:antialiased;box-sizing:border-box" class="color2f2e41 svgShape"></circle><circle cx="671.93" cy="461.94" r="7.38" opacity=".2" style="-webkit-font-smoothing:antialiased;box-sizing:border-box" fill="#000000" class="color000 svgShape"></circle><circle cx="671.93" cy="554.11" r="10.17" fill="#2f2e41" data-secondary="true" style="-webkit-font-smoothing:antialiased;box-sizing:border-box" class="color2f2e41 svgShape"></circle><circle cx="671.93" cy="554.11" r="7.38" opacity=".2" style="-webkit-font-smoothing:antialiased;box-sizing:border-box" fill="#000000" class="color000 svgShape"></circle><path fill="#f9b499" d="M266.41,93v9.78a8,8,0,0,1-1.14,4.13l-5.86,9.84-31.25-25L230.52,82Z" style="-webkit-font-smoothing:antialiased;box-sizing:border-box" class="colorf9b499 svgShape"></path><path fill="#f9b499" d="M282.13,60.18s-1.4,40.1-30.68,39.6c0,0-24-1.13-29.15-38.44V34.28l34.86-5.5,23.35,4.75Z" style="-webkit-font-smoothing:antialiased;box-sizing:border-box" class="colorf9b499 svgShape"></path><path fill="#0a52a7" d="M270.3,664.1s28.09,16.59,57.79,4.79c6.76-2.69,5.53-12.63-1.67-13.64l-.3,0s-22.39-1.23-34.35-22.39c0,0-17.17-3.38-39.26,7v24.84l17.79,4Z" data-primary="true" style="-webkit-font-smoothing:antialiased;box-sizing:border-box" class="color0071f2 svgShape"></path><path fill="#0a52a7" d="M191.17,665.94v4s-10.74-2.15-18.1-4V643.86s19.75-22.87,36.2-10.74c0,0,17.17,21.47,34.65,22.09,0,0,10,.52,11,9.4a3.18,3.18,0,0,1-1.76,3.21C246.31,671.17,221,681.36,191.17,665.94Z" data-primary="true" style="-webkit-font-smoothing:antialiased;box-sizing:border-box" class="color0071f2 svgShape"></path><path fill="#2f2e41" d="M305.88,352.48s-.31,73.92-4.29,84.65L297,465.66l-8.29,58v100s4,5.82,3.07,9.2c0,0-15.64-3.38-39.26,7v-119l5.83-136.18,14.72-59.2-17.17,69s-12.27,86.8-16.57,98.15c0,0-11,33.74-11,62.26,0,0-4.91,70.24-19,78.21,0,0-13.81-11.65-36.2,10.74,0,0,1.08-9.59,2.88-17.65a80.39,80.39,0,0,0,1.89-16.36c.07-4.32,1.08-11.29,4.43-22.43,0,0,12.58-88.33,13-100.75l-2.3-63,12-140.17,104.9,2.61Z" data-secondary="true" style="-webkit-font-smoothing:antialiased;box-sizing:border-box" class="color2f2e41 svgShape"></path><path fill="#ffffff" d="M300.67,292.37s-33.44,7.05-54.91-1.84l-1.84-67.79L219.08,105l58.08,18.12,18.6,112.85Z" style="-webkit-font-smoothing:antialiased;box-sizing:border-box" class="colorfff svgShape"></path><ellipse cx="280.51" cy="63.05" fill="#f9b499" rx="6.5" ry="10.87" style="-webkit-font-smoothing:antialiased;box-sizing:border-box" class="colorf9b499 svgShape"></ellipse><ellipse cx="224.02" cy="64.8" fill="#f9b499" rx="6.5" ry="10.87" style="-webkit-font-smoothing:antialiased;box-sizing:border-box" class="colorf9b499 svgShape"></ellipse><path fill="#2f2e41" d="M277.16,137.53l-17-19.5-9.75,19.5L222.3,109.78l-1.39-7.5,6-11.5,32.5,26,5.86-9.84a7.33,7.33,0,0,0,1.14-4.13h0a2.26,2.26,0,0,1,2.18,1.69Z" data-secondary="true" style="-webkit-font-smoothing:antialiased;box-sizing:border-box" class="color2f2e41 svgShape"></path><path fill="#0a52a7" d="M243.62,172.75l-22.71-70.47,1.5-2.87s-2.75-1-6.8,3.71l-13.86,14.42s-38.19,9.81-41.56,26.07L155,160.17s-3.38,15-1.23,35.27l3.07,43.86,17.79,70.24-5.22,47.24,65.33,8.89s7.36-15.64,7.67-27.6l8.89-88.64Z" data-primary="true" style="-webkit-font-smoothing:antialiased;box-sizing:border-box" class="color0071f2 svgShape"></path><path fill="#ffffff" d="M218.47,126.43l-11.66-3.68,10.71-21.54s2.9-2.61,4.89-1.8l-1.5,2.87,22.71,70.47,7.66,75.11L209,132.26Z" opacity=".2" style="-webkit-font-smoothing:antialiased;box-sizing:border-box" class="colorfff svgShape"></path><path fill="#0a52a7" d="M321.22,353.4s-16-145.69-12-167.16L357,200.74s14.73,3.91,25.31-5.3l49.34-79.88a3.82,3.82,0,0,0-1.15-5.2l-19.74-13a2.51,2.51,0,0,0-3.4.62l-39.25,54a10.59,10.59,0,0,1-7.81,4.39c-3.79.27-9.49-.42-17.1-4.22,0,0-49-32.86-71.17-34.37l-2.83,10.59,20.86,102.91,9.67,114.79s.23,11.5,9.89,11.5Z" data-primary="true" style="-webkit-font-smoothing:antialiased;box-sizing:border-box" class="color0071f2 svgShape"></path><polygon fill="#ffffff" points="280.65 126.66 272.05 117.83 269.22 128.42 290.08 231.33 288.93 135.18 275.86 132.52 280.65 126.66" opacity=".2" style="-webkit-font-smoothing:antialiased;box-sizing:border-box" class="colorfff svgShape"></polygon><polygon fill="#cccccc" points="431.39 110.93 433.63 107.67 430.68 105.53 413.14 92.83 410.2 97 431.39 110.93" style="-webkit-font-smoothing:antialiased;box-sizing:border-box" class="colorccc svgShape"></polygon><path fill="#f9b499" d="M430.68,105.53a7.91,7.91,0,0,0,6.54-3.65l13-21.3a2.61,2.61,0,0,0-.49-3.29h0a2.61,2.61,0,0,0-3.54,0l-.69.66.76-2.13a3,3,0,0,0-.85-3.32h0a3.07,3.07,0,0,0-4.12.07l-1.38,1.3.83-4a2.4,2.4,0,0,0-.8-2.3h0a2.4,2.4,0,0,0-3-.06L435,69l.33-1.92a2.93,2.93,0,0,0-1.74-3.19h0a2.92,2.92,0,0,0-3.38.82l-10,12.08s-7.58-13.92-14.13-11.32a1.35,1.35,0,0,0-.56,2c2.87,4,11.76,17.33,9.76,26.88Z" style="-webkit-font-smoothing:antialiased;box-sizing:border-box" class="colorf9b499 svgShape"></path><polygon fill="#0a52a7" points="284.41 266.3 273.98 283.47 271.02 279.22 262.02 266.3 256.5 133.18 253.61 131.13 260.16 118.03 269.22 128.42 264.17 135.94 284.41 266.3" data-primary="true" style="-webkit-font-smoothing:antialiased;box-sizing:border-box" class="color0071f2 svgShape"></polygon><polygon points="279.65 266.6 271.02 279.22 273.98 283.47 284.41 266.3 266.41 150.4 279.65 266.6" opacity=".2" style="-webkit-font-smoothing:antialiased;box-sizing:border-box" fill="#000000" class="color000 svgShape"></polygon><path fill="#3f3d56" d="M296.05,302.16a152.2,152.2,0,0,1-50.06,0l1.12-11.11s20.05,7.63,48.19,2.25Z" style="-webkit-font-smoothing:antialiased;box-sizing:border-box" class="color3f3d56 svgShape"></path><rect width="16.15" height="12.42" x="269.22" y="292.83" fill="#cccccc" transform="rotate(-180 277.295 299.035)" style="-webkit-font-smoothing:antialiased;box-sizing:border-box" class="colorccc svgShape"></rect><path d="M277.69 632.74l-1.87-105.13S299.29 400 300.67 350.84l5.21 1.64L305 398.93s-1.07 31.76-3.37 38.2l-12.89 86.5v100s3.84 4.9 3.07 9.2C291.77 632.82 283.91 631.74 277.69 632.74zM213.35 539.54c-.3-14.88 1.43-38.29 13.41-53.39a1295.27 1295.27 0 0146.3-160.66l-16.61 66.76L241 486.6s-12.58 36.23-12.67 68.31c0 0-5.92 72.25-19 78.21 0 0-7.2-4.91-14.14-2.65l14.43-57.82A125.69 125.69 0 00213.35 539.54zM206.38 314.66l-15.24-57.49a13.72 13.72 0 01-.41-4.51l5.11-65.58a31.68 31.68 0 011-5.72c2-7.44 7-27.84 5.34-34.07 0 0-6.69 25.59-10.81 36.38a16.72 16.72 0 00-1 4.35l-5.69 58.79a45.7 45.7 0 001.44 16.62l12.15 44s2.15 8-5.82 11.05l-13.69 3.42a1.05 1.05 0 00-.77 1.29h0a1.05 1.05 0 001.3.75l25.95-7.16A1.7 1.7 0 00206.38 314.66zM430 110l-47 72.83s-7.13 11.12-25.67 6.85l-41.35-12.84s-5.7-23.95-11.69-27.66c0 0 7.75 20.78 5 37.05L357 200.74s16.13 3.89 25.31-5.3l49.34-79.88a3.82 3.82 0 00-1.15-5.2z" opacity=".2" style="-webkit-font-smoothing:antialiased;box-sizing:border-box" fill="#000000" class="color000 svgShape"></path><path d="M366.63,153.69l-7.35,18.6s1.14-9.29-16.06-20.09C343.22,152.2,360.14,161.05,366.63,153.69Z" opacity=".2" style="-webkit-font-smoothing:antialiased;box-sizing:border-box" fill="#000000" class="color000 svgShape"></path><path fill="#f4a790" d="M266.41,99.05V95.29S246.57,110.36,229.9,84.4l-1.74,7.18,12,9.57A17.41,17.41,0,0,0,257,103.89,47.24,47.24,0,0,0,266.41,99.05Z" style="-webkit-font-smoothing:antialiased;box-sizing:border-box" class="colorf4a790 svgShape"></path><path fill="#2f2e41" d="M284.14,58.34c2-9.56,8.92-46.91-7.72-42.24a7.24,7.24,0,0,1-5.87-.9c-7.21-4.64-27-13.67-47.14,9.83,0,0-10.25,4.25-7.25,19.5,0,0,3.75,22.75,9.5,16a31.1,31.1,0,0,0,1.18-13.62,9,9,0,0,1,1.23-6.22c1.22-1.91,3.22-3.53,6.34-2.41,0,0,18.79,6.59,30.09-1.29a12,12,0,0,1,7.19-2.26c2.65.09,5.44,1.15,6.39,4.91a9.58,9.58,0,0,1,.13,3.81C277.67,46.9,276.5,57,280.6,59.8A2.31,2.31,0,0,0,284.14,58.34Z" data-secondary="true" style="-webkit-font-smoothing:antialiased;box-sizing:border-box" class="color2f2e41 svgShape"></path><path fill="#cccccc" d="M180.42,363l-3.09-15.92a6.12,6.12,0,0,1,4.54-7.12l29.24-7.22a6.12,6.12,0,0,1,7.53,5.08l2.84,19.81-3.8.7-2.44-13.07a7,7,0,0,0-8.2-5.64l-19.44,3.56a7,7,0,0,0-5.61,8.45L184.48,363Z" style="-webkit-font-smoothing:antialiased;box-sizing:border-box" class="colorccc svgShape"></path><path fill="#f9b499" d="M203.09,320.77s13.2,12.62,14.58,20.12a.55.55,0,0,1-1,.43c-1.32-1.73-3.65-4.37-5.51-4.29l2.55,9.74a3.14,3.14,0,0,1-1.74,3.66h0a3.14,3.14,0,0,1-4.05-1.34L205.66,345l.68,2.41a3.11,3.11,0,0,1-2.49,3.89h0a3.11,3.11,0,0,1-3.31-1.77l-1.43-3.15v2.45a2.84,2.84,0,0,1-2.84,2.84h0a2.83,2.83,0,0,1-2.71-2l-1-3.38v2a1.42,1.42,0,0,1-2.08,1.25c-2.67-1.44-7.06-5.6-7.7-17.55v-5.64Z" style="-webkit-font-smoothing:antialiased;box-sizing:border-box" class="colorf9b499 svgShape"></path><polygon fill="#cccccc" points="204.01 317.06 204.86 321.39 181.05 327.6 180.42 323.58 204.01 317.06" style="-webkit-font-smoothing:antialiased;box-sizing:border-box" class="colorccc svgShape"></polygon><path fill="#cccccc" d="M251.06,349l-97.48,9.73a3.07,3.07,0,0,0-2.75,3.31L157,431.83a8.85,8.85,0,0,0,9.88,8l88.6-10.66a7.48,7.48,0,0,0,6.53-8.34l-8.68-70A2.08,2.08,0,0,0,251.06,349Z" style="-webkit-font-smoothing:antialiased;box-sizing:border-box" class="colorccc svgShape"></path><path d="M257.57,385l-49.15,14.57-54.64-4.13-2.95-33.35a2.8,2.8,0,0,1,2.75-3.31L251.06,349s2-.72,2.28,1.82Z" opacity=".2" style="-webkit-font-smoothing:antialiased;box-sizing:border-box" fill="#000000" class="color000 svgShape"></path><rect width="10.57" height="16.58" x="201.16" y="390.08" fill="#2f2e41" data-secondary="true" rx="4.65" transform="rotate(174.86 206.46 398.364)" style="-webkit-font-smoothing:antialiased;box-sizing:border-box" class="color2f2e41 svgShape"></rect></svg></g></svg>